<mxfile host="app.diagrams.net" agent="Mozilla/5.0 (Windows NT 10.0; Win64; x64) AppleWebKit/537.36 (KHTML, like Gecko) Chrome/127.0.0.0 Safari/537.36 OPR/113.0.0.0" version="24.7.16">
  <diagram name="Página-1" id="VJ671KgUXSQNHjuQpwX_">
    <mxGraphModel grid="1" page="1" gridSize="10" guides="1" tooltips="1" connect="1" arrows="1" fold="1" pageScale="1" pageWidth="827" pageHeight="1169" background="none" math="0" shadow="0">
      <root>
        <mxCell id="0" />
        <mxCell id="1" parent="0" />
        <mxCell id="CNDKxhqgE68sbRdpaEe1-10" style="edgeStyle=orthogonalEdgeStyle;rounded=0;orthogonalLoop=1;jettySize=auto;html=1;endArrow=none;endFill=0;" edge="1" parent="1" source="t4OK2ogH8P34wzbxTk4r-3" target="t4OK2ogH8P34wzbxTk4r-4">
          <mxGeometry relative="1" as="geometry" />
        </mxCell>
        <mxCell id="CNDKxhqgE68sbRdpaEe1-11" style="edgeStyle=orthogonalEdgeStyle;rounded=0;orthogonalLoop=1;jettySize=auto;html=1;endArrow=none;endFill=0;" edge="1" parent="1" source="t4OK2ogH8P34wzbxTk4r-3" target="t4OK2ogH8P34wzbxTk4r-5">
          <mxGeometry relative="1" as="geometry" />
        </mxCell>
        <mxCell id="CNDKxhqgE68sbRdpaEe1-12" style="edgeStyle=orthogonalEdgeStyle;rounded=0;orthogonalLoop=1;jettySize=auto;html=1;endArrow=none;endFill=0;entryX=0.5;entryY=0;entryDx=0;entryDy=0;" edge="1" parent="1" source="t4OK2ogH8P34wzbxTk4r-3" target="t4OK2ogH8P34wzbxTk4r-6">
          <mxGeometry relative="1" as="geometry" />
        </mxCell>
        <mxCell id="CNDKxhqgE68sbRdpaEe1-20" style="edgeStyle=orthogonalEdgeStyle;rounded=0;orthogonalLoop=1;jettySize=auto;html=1;endArrow=none;endFill=0;" edge="1" parent="1" source="t4OK2ogH8P34wzbxTk4r-3" target="t4OK2ogH8P34wzbxTk4r-8">
          <mxGeometry relative="1" as="geometry" />
        </mxCell>
        <mxCell id="CNDKxhqgE68sbRdpaEe1-21" style="edgeStyle=orthogonalEdgeStyle;rounded=0;orthogonalLoop=1;jettySize=auto;html=1;endArrow=none;endFill=0;" edge="1" parent="1" source="t4OK2ogH8P34wzbxTk4r-3" target="t4OK2ogH8P34wzbxTk4r-7">
          <mxGeometry relative="1" as="geometry" />
        </mxCell>
        <mxCell id="wmVdZgGBvwjIQZHBdNKB-25" style="edgeStyle=orthogonalEdgeStyle;rounded=0;orthogonalLoop=1;jettySize=auto;html=1;entryX=0.5;entryY=1;entryDx=0;entryDy=0;endArrow=none;endFill=0;" edge="1" parent="1" source="t4OK2ogH8P34wzbxTk4r-3" target="CNDKxhqgE68sbRdpaEe1-39">
          <mxGeometry relative="1" as="geometry" />
        </mxCell>
        <mxCell id="wmVdZgGBvwjIQZHBdNKB-34" style="edgeStyle=orthogonalEdgeStyle;rounded=0;orthogonalLoop=1;jettySize=auto;html=1;entryX=0.5;entryY=1;entryDx=0;entryDy=0;endArrow=none;endFill=0;" edge="1" parent="1" source="t4OK2ogH8P34wzbxTk4r-3" target="wmVdZgGBvwjIQZHBdNKB-2">
          <mxGeometry relative="1" as="geometry" />
        </mxCell>
        <mxCell id="wmVdZgGBvwjIQZHBdNKB-35" style="edgeStyle=orthogonalEdgeStyle;rounded=0;orthogonalLoop=1;jettySize=auto;html=1;entryX=0.5;entryY=0;entryDx=0;entryDy=0;endArrow=none;endFill=0;" edge="1" parent="1" source="t4OK2ogH8P34wzbxTk4r-3" target="t4OK2ogH8P34wzbxTk4r-9">
          <mxGeometry relative="1" as="geometry" />
        </mxCell>
        <mxCell id="CNDKxhqgE68sbRdpaEe1-65" style="edgeStyle=orthogonalEdgeStyle;rounded=0;orthogonalLoop=1;jettySize=auto;html=1;fontFamily=Helvetica;fontSize=12;fontColor=default;endArrow=none;endFill=0;" edge="1" parent="1" source="t4OK2ogH8P34wzbxTk4r-3" target="wmVdZgGBvwjIQZHBdNKB-17">
          <mxGeometry relative="1" as="geometry" />
        </mxCell>
        <mxCell id="t4OK2ogH8P34wzbxTk4r-3" value="Medicamento" style="rounded=0;whiteSpace=wrap;html=1;fillColor=#e1d5e7;strokeColor=#9673a6;" vertex="1" parent="1">
          <mxGeometry x="450" y="630" width="120" height="60" as="geometry" />
        </mxCell>
        <mxCell id="t4OK2ogH8P34wzbxTk4r-4" value="Código" style="ellipse;whiteSpace=wrap;html=1;aspect=fixed;fillColor=#6a00ff;fontColor=#ffffff;strokeColor=#3700CC;" vertex="1" parent="1">
          <mxGeometry x="335" y="500" width="80" height="80" as="geometry" />
        </mxCell>
        <mxCell id="t4OK2ogH8P34wzbxTk4r-5" value="Nombre" style="ellipse;whiteSpace=wrap;html=1;aspect=fixed;fillColor=#e1d5e7;strokeColor=#9673a6;" vertex="1" parent="1">
          <mxGeometry x="335" y="740" width="80" height="80" as="geometry" />
        </mxCell>
        <mxCell id="t4OK2ogH8P34wzbxTk4r-6" value="Tipo" style="ellipse;whiteSpace=wrap;html=1;aspect=fixed;fillColor=#e1d5e7;strokeColor=#9673a6;" vertex="1" parent="1">
          <mxGeometry x="706.5" y="690" width="80" height="80" as="geometry" />
        </mxCell>
        <mxCell id="t4OK2ogH8P34wzbxTk4r-7" value="Unidades Stock" style="ellipse;whiteSpace=wrap;html=1;aspect=fixed;fillColor=#e1d5e7;strokeColor=#9673a6;dashed=1;" vertex="1" parent="1">
          <mxGeometry x="610" y="510" width="80" height="80" as="geometry" />
        </mxCell>
        <mxCell id="t4OK2ogH8P34wzbxTk4r-8" value="Unidades vendidas" style="ellipse;whiteSpace=wrap;html=1;aspect=fixed;fillColor=#e1d5e7;strokeColor=#9673a6;dashed=1;" vertex="1" parent="1">
          <mxGeometry x="610" y="720" width="80" height="80" as="geometry" />
        </mxCell>
        <mxCell id="t4OK2ogH8P34wzbxTk4r-9" value="Precio" style="ellipse;whiteSpace=wrap;html=1;aspect=fixed;fillColor=#e1d5e7;strokeColor=#9673a6;" vertex="1" parent="1">
          <mxGeometry x="240" y="690" width="80" height="80" as="geometry" />
        </mxCell>
        <mxCell id="CNDKxhqgE68sbRdpaEe1-15" style="edgeStyle=orthogonalEdgeStyle;rounded=0;orthogonalLoop=1;jettySize=auto;html=1;endArrow=none;endFill=0;" edge="1" parent="1" source="t4OK2ogH8P34wzbxTk4r-19" target="CNDKxhqgE68sbRdpaEe1-1">
          <mxGeometry relative="1" as="geometry" />
        </mxCell>
        <mxCell id="CNDKxhqgE68sbRdpaEe1-16" style="edgeStyle=orthogonalEdgeStyle;rounded=0;orthogonalLoop=1;jettySize=auto;html=1;endArrow=none;endFill=0;" edge="1" parent="1" source="t4OK2ogH8P34wzbxTk4r-19" target="CNDKxhqgE68sbRdpaEe1-3">
          <mxGeometry relative="1" as="geometry" />
        </mxCell>
        <mxCell id="CNDKxhqgE68sbRdpaEe1-19" style="edgeStyle=orthogonalEdgeStyle;rounded=0;orthogonalLoop=1;jettySize=auto;html=1;endArrow=none;endFill=0;" edge="1" parent="1" source="t4OK2ogH8P34wzbxTk4r-19" target="CNDKxhqgE68sbRdpaEe1-7">
          <mxGeometry relative="1" as="geometry" />
        </mxCell>
        <mxCell id="CNDKxhqgE68sbRdpaEe1-51" style="edgeStyle=orthogonalEdgeStyle;rounded=0;orthogonalLoop=1;jettySize=auto;html=1;endArrow=none;endFill=0;" edge="1" parent="1" source="t4OK2ogH8P34wzbxTk4r-19" target="CNDKxhqgE68sbRdpaEe1-5">
          <mxGeometry relative="1" as="geometry" />
        </mxCell>
        <mxCell id="CNDKxhqgE68sbRdpaEe1-52" style="edgeStyle=orthogonalEdgeStyle;rounded=0;orthogonalLoop=1;jettySize=auto;html=1;endArrow=none;endFill=0;" edge="1" parent="1" source="t4OK2ogH8P34wzbxTk4r-19" target="CNDKxhqgE68sbRdpaEe1-6">
          <mxGeometry relative="1" as="geometry" />
        </mxCell>
        <mxCell id="wmVdZgGBvwjIQZHBdNKB-37" style="edgeStyle=orthogonalEdgeStyle;rounded=0;orthogonalLoop=1;jettySize=auto;html=1;entryX=0.5;entryY=1;entryDx=0;entryDy=0;endArrow=none;endFill=0;" edge="1" parent="1" source="t4OK2ogH8P34wzbxTk4r-19" target="wmVdZgGBvwjIQZHBdNKB-36">
          <mxGeometry relative="1" as="geometry" />
        </mxCell>
        <mxCell id="t4OK2ogH8P34wzbxTk4r-19" value="Laboratorio" style="rounded=0;whiteSpace=wrap;html=1;fillColor=#e1d5e7;strokeColor=#9673a6;" vertex="1" parent="1">
          <mxGeometry x="666.5" y="90" width="120" height="60" as="geometry" />
        </mxCell>
        <mxCell id="CNDKxhqgE68sbRdpaEe1-1" value="Código" style="ellipse;whiteSpace=wrap;html=1;aspect=fixed;fillColor=#6a00ff;fontColor=#ffffff;strokeColor=#3700CC;" vertex="1" parent="1">
          <mxGeometry x="430.75" y="-20" width="80" height="80" as="geometry" />
        </mxCell>
        <mxCell id="CNDKxhqgE68sbRdpaEe1-3" value="Nombre" style="ellipse;whiteSpace=wrap;html=1;aspect=fixed;fillColor=#e1d5e7;strokeColor=#9673a6;" vertex="1" parent="1">
          <mxGeometry x="528.75" y="-20" width="80" height="80" as="geometry" />
        </mxCell>
        <mxCell id="CNDKxhqgE68sbRdpaEe1-5" value="Teléfono" style="ellipse;whiteSpace=wrap;html=1;fillColor=#e1d5e7;strokeColor=#9673a6;" vertex="1" parent="1">
          <mxGeometry x="633" y="-20" width="80" height="80" as="geometry" />
        </mxCell>
        <mxCell id="CNDKxhqgE68sbRdpaEe1-6" value="Dirección postal" style="ellipse;whiteSpace=wrap;html=1;fillColor=#e1d5e7;strokeColor=#9673a6;" vertex="1" parent="1">
          <mxGeometry x="735.75" y="-20" width="80" height="80" as="geometry" />
        </mxCell>
        <mxCell id="CNDKxhqgE68sbRdpaEe1-7" value="Fax" style="ellipse;whiteSpace=wrap;html=1;fillColor=#e1d5e7;strokeColor=#9673a6;" vertex="1" parent="1">
          <mxGeometry x="833.75" y="-20" width="80" height="80" as="geometry" />
        </mxCell>
        <mxCell id="CNDKxhqgE68sbRdpaEe1-46" style="edgeStyle=orthogonalEdgeStyle;rounded=0;orthogonalLoop=1;jettySize=auto;html=1;endArrow=none;endFill=0;" edge="1" parent="1" source="CNDKxhqgE68sbRdpaEe1-8" target="CNDKxhqgE68sbRdpaEe1-9">
          <mxGeometry relative="1" as="geometry" />
        </mxCell>
        <mxCell id="CNDKxhqgE68sbRdpaEe1-8" value="Familia" style="shape=process;whiteSpace=wrap;html=1;backgroundOutline=1;fillColor=#e1d5e7;strokeColor=#9673a6;" vertex="1" parent="1">
          <mxGeometry x="666.5" y="840" width="120" height="60" as="geometry" />
        </mxCell>
        <mxCell id="CNDKxhqgE68sbRdpaEe1-9" value="Enfermedad que se aplica" style="ellipse;whiteSpace=wrap;html=1;aspect=fixed;fillColor=#6a00ff;fontColor=#ffffff;strokeColor=#3700CC;" vertex="1" parent="1">
          <mxGeometry x="822.5" y="830" width="80" height="80" as="geometry" />
        </mxCell>
        <mxCell id="CNDKxhqgE68sbRdpaEe1-39" value="Receta&amp;nbsp;" style="ellipse;whiteSpace=wrap;html=1;fillColor=#e1d5e7;strokeColor=#9673a6;rounded=0;" vertex="1" parent="1">
          <mxGeometry x="706.5" y="540" width="80" height="80" as="geometry" />
        </mxCell>
        <mxCell id="CNDKxhqgE68sbRdpaEe1-73" style="edgeStyle=orthogonalEdgeStyle;rounded=0;orthogonalLoop=1;jettySize=auto;html=1;fontFamily=Helvetica;fontSize=12;fontColor=default;endArrow=none;endFill=0;" edge="1" parent="1" source="CNDKxhqgE68sbRdpaEe1-23" target="CNDKxhqgE68sbRdpaEe1-49">
          <mxGeometry relative="1" as="geometry" />
        </mxCell>
        <mxCell id="CNDKxhqgE68sbRdpaEe1-23" value="Farmacia" style="whiteSpace=wrap;html=1;fillColor=#e1d5e7;strokeColor=#9673a6;" vertex="1" parent="1">
          <mxGeometry x="450" y="270" width="120" height="60" as="geometry" />
        </mxCell>
        <mxCell id="wmVdZgGBvwjIQZHBdNKB-1" value="Dato Bancario" style="ellipse;whiteSpace=wrap;html=1;aspect=fixed;fillColor=#6a00ff;strokeColor=#3700CC;fontColor=#ffffff;" vertex="1" parent="1">
          <mxGeometry x="50" y="400" width="80" height="80" as="geometry" />
        </mxCell>
        <mxCell id="wmVdZgGBvwjIQZHBdNKB-2" value="Fecha de venta" style="ellipse;whiteSpace=wrap;html=1;aspect=fixed;fillColor=#e1d5e7;strokeColor=#9673a6;" vertex="1" parent="1">
          <mxGeometry x="240" y="540" width="80" height="80" as="geometry" />
        </mxCell>
        <mxCell id="wmVdZgGBvwjIQZHBdNKB-46" style="edgeStyle=orthogonalEdgeStyle;rounded=0;orthogonalLoop=1;jettySize=auto;html=1;entryX=0.5;entryY=1;entryDx=0;entryDy=0;endArrow=none;endFill=0;" edge="1" parent="1" source="CNDKxhqgE68sbRdpaEe1-49" target="t4OK2ogH8P34wzbxTk4r-19">
          <mxGeometry relative="1" as="geometry" />
        </mxCell>
        <mxCell id="wmVdZgGBvwjIQZHBdNKB-47" style="edgeStyle=orthogonalEdgeStyle;rounded=0;orthogonalLoop=1;jettySize=auto;html=1;entryX=0.867;entryY=0.012;entryDx=0;entryDy=0;endArrow=none;endFill=0;entryPerimeter=0;exitX=0.5;exitY=1;exitDx=0;exitDy=0;" edge="1" parent="1" source="CNDKxhqgE68sbRdpaEe1-49" target="t4OK2ogH8P34wzbxTk4r-3">
          <mxGeometry relative="1" as="geometry">
            <Array as="points">
              <mxPoint x="727" y="470" />
              <mxPoint x="554" y="470" />
            </Array>
          </mxGeometry>
        </mxCell>
        <mxCell id="CNDKxhqgE68sbRdpaEe1-49" value="compra" style="rhombus;whiteSpace=wrap;html=1;fillColor=#fff2cc;strokeColor=#d6b656;" vertex="1" parent="1">
          <mxGeometry x="686.5" y="260" width="80" height="80" as="geometry" />
        </mxCell>
        <mxCell id="CNDKxhqgE68sbRdpaEe1-63" style="edgeStyle=orthogonalEdgeStyle;rounded=0;orthogonalLoop=1;jettySize=auto;html=1;entryX=0;entryY=0.5;entryDx=0;entryDy=0;fontFamily=Helvetica;fontSize=12;fontColor=default;endArrow=none;endFill=0;" edge="1" parent="1" source="wmVdZgGBvwjIQZHBdNKB-17" target="CNDKxhqgE68sbRdpaEe1-8">
          <mxGeometry relative="1" as="geometry" />
        </mxCell>
        <mxCell id="wmVdZgGBvwjIQZHBdNKB-17" value="pertenece" style="rhombus;whiteSpace=wrap;html=1;fillColor=#fff2cc;strokeColor=#d6b656;" vertex="1" parent="1">
          <mxGeometry x="470" y="830" width="80" height="80" as="geometry" />
        </mxCell>
        <mxCell id="wmVdZgGBvwjIQZHBdNKB-42" style="edgeStyle=orthogonalEdgeStyle;rounded=0;orthogonalLoop=1;jettySize=auto;html=1;exitX=0.5;exitY=1;exitDx=0;exitDy=0;endArrow=none;endFill=0;" edge="1" parent="1" source="CNDKxhqgE68sbRdpaEe1-57" target="t4OK2ogH8P34wzbxTk4r-3">
          <mxGeometry relative="1" as="geometry" />
        </mxCell>
        <mxCell id="CNDKxhqgE68sbRdpaEe1-57" value="fabrica" style="rhombus;whiteSpace=wrap;html=1;fillColor=#fff2cc;strokeColor=#d6b656;" vertex="1" parent="1">
          <mxGeometry x="470" y="380" width="80" height="80" as="geometry" />
        </mxCell>
        <mxCell id="wmVdZgGBvwjIQZHBdNKB-32" style="edgeStyle=orthogonalEdgeStyle;rounded=0;orthogonalLoop=1;jettySize=auto;html=1;endArrow=none;endFill=0;" edge="1" parent="1" source="wmVdZgGBvwjIQZHBdNKB-31" target="wmVdZgGBvwjIQZHBdNKB-1">
          <mxGeometry relative="1" as="geometry" />
        </mxCell>
        <mxCell id="wmVdZgGBvwjIQZHBdNKB-22" style="edgeStyle=orthogonalEdgeStyle;rounded=0;orthogonalLoop=1;jettySize=auto;html=1;entryX=0.5;entryY=0;entryDx=0;entryDy=0;endArrow=none;endFill=0;" edge="1" parent="1" source="CNDKxhqgE68sbRdpaEe1-23" target="CNDKxhqgE68sbRdpaEe1-57">
          <mxGeometry relative="1" as="geometry" />
        </mxCell>
        <mxCell id="wmVdZgGBvwjIQZHBdNKB-33" style="edgeStyle=orthogonalEdgeStyle;rounded=0;orthogonalLoop=1;jettySize=auto;html=1;endArrow=none;endFill=0;" edge="1" parent="1" source="wmVdZgGBvwjIQZHBdNKB-31">
          <mxGeometry relative="1" as="geometry">
            <mxPoint x="210" y="400" as="targetPoint" />
          </mxGeometry>
        </mxCell>
        <mxCell id="wmVdZgGBvwjIQZHBdNKB-31" value="Cliente con Crédito" style="rounded=0;whiteSpace=wrap;html=1;fillColor=#e1d5e7;strokeColor=#9673a6;" vertex="1" parent="1">
          <mxGeometry x="90" y="270" width="120" height="60" as="geometry" />
        </mxCell>
        <mxCell id="CNDKxhqgE68sbRdpaEe1-61" style="edgeStyle=orthogonalEdgeStyle;rounded=0;orthogonalLoop=1;jettySize=auto;html=1;fontFamily=Helvetica;fontSize=12;fontColor=default;endArrow=none;endFill=0;" edge="1" parent="1" target="wmVdZgGBvwjIQZHBdNKB-31">
          <mxGeometry relative="1" as="geometry">
            <mxPoint x="299.9999999999998" y="300" as="sourcePoint" />
          </mxGeometry>
        </mxCell>
        <mxCell id="wmVdZgGBvwjIQZHBdNKB-48" style="edgeStyle=orthogonalEdgeStyle;rounded=0;orthogonalLoop=1;jettySize=auto;html=1;entryX=0.148;entryY=-0.008;entryDx=0;entryDy=0;exitX=0.5;exitY=1;exitDx=0;exitDy=0;endArrow=none;endFill=0;entryPerimeter=0;" edge="1" parent="1" source="CNDKxhqgE68sbRdpaEe1-59" target="t4OK2ogH8P34wzbxTk4r-3">
          <mxGeometry relative="1" as="geometry">
            <Array as="points">
              <mxPoint x="320" y="470" />
              <mxPoint x="468" y="470" />
            </Array>
          </mxGeometry>
        </mxCell>
        <mxCell id="CNDKxhqgE68sbRdpaEe1-59" value="compra" style="rhombus;whiteSpace=wrap;html=1;strokeColor=#d6b656;align=center;verticalAlign=middle;fontFamily=Helvetica;fontSize=12;fillColor=#fff2cc;" vertex="1" parent="1">
          <mxGeometry x="280" y="260" width="80" height="80" as="geometry" />
        </mxCell>
        <mxCell id="wmVdZgGBvwjIQZHBdNKB-36" value="Persona de Contacto" style="ellipse;shape=doubleEllipse;margin=3;whiteSpace=wrap;html=1;align=center;fillColor=#e1d5e7;strokeColor=#9673a6;strokeWidth=1;perimeterSpacing=0;" vertex="1" parent="1">
          <mxGeometry x="942.25" y="-20" width="80" height="80" as="geometry" />
        </mxCell>
        <mxCell id="P0v9ZzTGCIFiARDCAQr--1" value="(1,1)" style="text;html=1;align=center;verticalAlign=middle;resizable=0;points=[];autosize=1;strokeColor=none;fillColor=none;" vertex="1" parent="1">
          <mxGeometry x="616.5" y="840" width="50" height="30" as="geometry" />
        </mxCell>
        <mxCell id="P0v9ZzTGCIFiARDCAQr--2" value="(1,N)" style="text;html=1;align=center;verticalAlign=middle;resizable=0;points=[];autosize=1;strokeColor=none;fillColor=none;" vertex="1" parent="1">
          <mxGeometry x="506.5" y="690" width="50" height="30" as="geometry" />
        </mxCell>
        <mxCell id="P0v9ZzTGCIFiARDCAQr--7" value="(0,N)" style="text;html=1;align=center;verticalAlign=middle;resizable=0;points=[];autosize=1;strokeColor=none;fillColor=none;" vertex="1" parent="1">
          <mxGeometry x="543.75" y="600" width="50" height="30" as="geometry" />
        </mxCell>
        <mxCell id="h4rrPBQ8XscFqctFBlXA-6" value="(1,1)" style="text;html=1;align=center;verticalAlign=middle;resizable=0;points=[];autosize=1;strokeColor=none;fillColor=none;" vertex="1" parent="1">
          <mxGeometry x="570" y="270" width="50" height="30" as="geometry" />
        </mxCell>
        <mxCell id="h4rrPBQ8XscFqctFBlXA-8" value="(1,N)" style="text;html=1;align=center;verticalAlign=middle;resizable=0;points=[];autosize=1;strokeColor=none;fillColor=none;" vertex="1" parent="1">
          <mxGeometry x="721.5" y="150" width="50" height="30" as="geometry" />
        </mxCell>
        <mxCell id="h4rrPBQ8XscFqctFBlXA-10" value="(1,1)" style="text;html=1;align=center;verticalAlign=middle;resizable=0;points=[];autosize=1;strokeColor=none;fillColor=none;" vertex="1" parent="1">
          <mxGeometry x="506.5" y="330" width="50" height="30" as="geometry" />
        </mxCell>
        <mxCell id="h4rrPBQ8XscFqctFBlXA-11" value="(0,N)" style="text;html=1;align=center;verticalAlign=middle;resizable=0;points=[];autosize=1;strokeColor=none;fillColor=none;" vertex="1" parent="1">
          <mxGeometry x="500" y="600" width="50" height="30" as="geometry" />
        </mxCell>
        <mxCell id="h4rrPBQ8XscFqctFBlXA-12" value="(1,N)" style="text;html=1;align=center;verticalAlign=middle;resizable=0;points=[];autosize=1;strokeColor=none;fillColor=none;" vertex="1" parent="1">
          <mxGeometry x="456.5" y="600" width="50" height="30" as="geometry" />
        </mxCell>
        <mxCell id="h4rrPBQ8XscFqctFBlXA-13" value="(1,N)" style="text;html=1;align=center;verticalAlign=middle;resizable=0;points=[];autosize=1;strokeColor=none;fillColor=none;" vertex="1" parent="1">
          <mxGeometry x="210" y="270" width="50" height="30" as="geometry" />
        </mxCell>
        <mxCell id="P0v9ZzTGCIFiARDCAQr--19" value="Fecha de pago" style="ellipse;shape=doubleEllipse;margin=3;whiteSpace=wrap;html=1;align=center;fillColor=#e1d5e7;strokeColor=#9673a6;strokeWidth=1;perimeterSpacing=0;" vertex="1" parent="1">
          <mxGeometry x="170" y="400" width="80" height="80" as="geometry" />
        </mxCell>
      </root>
    </mxGraphModel>
  </diagram>
</mxfile>
